<?xml version="1.0" encoding="UTF-8"?> <svg xmlns="http://www.w3.org/2000/svg" width="57" height="57" viewBox="0 0 57 57" fill="none"> <circle cx="28.4999" cy="28.4999" r="27.9999" stroke="#3B3B3B"></circle> <path d="M41.255 23.216C41.1949 21.8531 40.9745 20.9161 40.6588 20.1042C40.3331 19.2424 39.832 18.4708 39.1755 17.8294C38.5341 17.178 37.7575 16.6719 36.9056 16.3513C36.089 16.0355 35.157 15.8151 33.7941 15.7551C32.421 15.6899 31.9851 15.6748 28.5027 15.6748C25.0202 15.6748 24.5843 15.6899 23.2163 15.75C21.8535 15.8101 20.9165 16.0306 20.1048 16.3462C19.2428 16.6719 18.4712 17.1729 17.8298 17.8294C17.1784 18.4708 16.6724 19.2475 16.3516 20.0993C16.0359 20.9161 15.8155 21.848 15.7554 23.2109C15.6902 24.5839 15.6752 25.0198 15.6752 28.5023C15.6752 31.9848 15.6902 32.4207 15.7503 33.7886C15.8104 35.1515 16.031 36.0885 16.3467 36.9004C16.6724 37.7622 17.1784 38.5338 17.8298 39.1752C18.4712 39.8266 19.2479 40.3328 20.0997 40.6534C20.9165 40.9691 21.8484 41.1895 23.2114 41.2496C24.5792 41.3099 25.0153 41.3247 28.4978 41.3247C31.9802 41.3247 32.4161 41.3099 33.7841 41.2496C35.147 41.1895 36.084 40.9691 36.8957 40.6534C38.6195 39.9869 39.9823 38.624 40.6488 36.9004C40.9643 36.0836 41.1849 35.1515 41.245 33.7886C41.3051 32.4207 41.3202 31.9848 41.3202 28.5023C41.3202 25.0198 41.3151 24.5839 41.255 23.216ZM38.9452 33.6884C38.89 34.9411 38.6796 35.6176 38.5042 36.0685C38.0732 37.186 37.1863 38.0728 36.0689 38.5038C35.6179 38.6792 34.9366 38.8896 33.6888 38.9446C32.3359 39.0049 31.9301 39.0198 28.5078 39.0198C25.0854 39.0198 24.6745 39.0049 23.3265 38.9446C22.0738 38.8896 21.3974 38.6792 20.9464 38.5038C20.3904 38.2983 19.8842 37.9726 19.4734 37.5467C19.0474 37.1308 18.7217 36.6297 18.5162 36.0736C18.3408 35.6227 18.1304 34.9411 18.0754 33.6935C18.0151 32.3406 18.0003 31.9347 18.0003 28.5123C18.0003 25.0899 18.0151 24.6791 18.0754 23.3313C18.1304 22.0786 18.3408 21.4021 18.5162 20.9512C18.7217 20.3949 19.0474 19.8889 19.4784 19.4779C19.8942 19.052 20.3952 18.7263 20.9515 18.5209C21.4025 18.3456 22.084 18.1352 23.3316 18.08C24.6845 18.0199 25.0905 18.0048 28.5126 18.0048C31.9401 18.0048 32.3459 18.0199 33.6939 18.08C34.9466 18.1352 35.623 18.3456 36.074 18.5209C36.63 18.7263 37.1362 19.052 37.5471 19.4779C37.973 19.8938 38.2987 20.3949 38.5042 20.9512C38.6796 21.4021 38.89 22.0835 38.9452 23.3313C39.0053 24.6842 39.0203 25.0899 39.0203 28.5123C39.0203 31.9347 39.0053 32.3355 38.9452 33.6884Z" fill="#3B3B3B"></path> <path d="M28.5027 21.9131C24.865 21.9131 21.9136 24.8643 21.9136 28.5022C21.9136 32.1401 24.865 35.0913 28.5027 35.0913C32.1406 35.0913 35.0918 32.1401 35.0918 28.5022C35.0918 24.8643 32.1406 21.9131 28.5027 21.9131ZM28.5027 32.7764C26.1428 32.7764 24.2285 30.8624 24.2285 28.5022C24.2285 26.1421 26.1428 24.228 28.5027 24.228C30.8628 24.228 32.7769 26.1421 32.7769 28.5022C32.7769 30.8624 30.8628 32.7764 28.5027 32.7764Z" fill="#3B3B3B"></path> <path d="M36.8906 21.6525C36.8906 22.502 36.2018 23.1908 35.3522 23.1908C34.5027 23.1908 33.8139 22.502 33.8139 21.6525C33.8139 20.8028 34.5027 20.1143 35.3522 20.1143C36.2018 20.1143 36.8906 20.8028 36.8906 21.6525Z" fill="#3B3B3B"></path> </svg> 