<?xml version="1.0" encoding="UTF-8"?> <svg xmlns="http://www.w3.org/2000/svg" width="57" height="57" viewBox="0 0 57 57" fill="none"> <circle cx="28.4999" cy="28.4999" r="27.9999" stroke="#3B3B3B"></circle> <path fill-rule="evenodd" clip-rule="evenodd" d="M40.6704 18.4719C42.05 18.8348 43.1363 19.9039 43.5051 21.2615C44.1751 23.7223 44.1751 28.8563 44.1751 28.8563C44.1751 28.8563 44.1751 33.9902 43.5051 36.4512C43.1363 37.8085 42.05 38.8777 40.6704 39.2407C38.1701 39.8999 28.1438 39.8999 28.1438 39.8999C28.1438 39.8999 18.1177 39.8999 15.6174 39.2407C14.2378 38.8777 13.1514 37.8087 12.7827 36.4511C12.1127 33.9903 12.1127 28.8563 12.1127 28.8563C12.1127 28.8563 12.1127 23.7223 12.7827 21.2615C13.1514 19.9039 14.2378 18.8348 15.6174 18.4719C18.1177 17.8125 28.1438 17.8125 28.1438 17.8125C28.1438 17.8125 38.1701 17.8125 40.6704 18.4719ZM32.7751 28.8561L24.9377 33.4871V24.2246L32.7751 28.8561Z" fill="#3B3B3B"></path> </svg> 