<?xml version="1.0" encoding="UTF-8"?> <svg xmlns="http://www.w3.org/2000/svg" width="57" height="57" viewBox="0 0 57 57" fill="none"> <circle cx="28.4999" cy="28.4999" r="27.9999" stroke="#3B3B3B"></circle> <g clip-path="url(#clip0_144_507)"> <path d="M35.9809 15.6748H21.0184C18.0676 15.6748 15.6747 18.0677 15.6747 21.0185V35.981C15.6747 38.9318 18.0676 41.3247 21.0184 41.3247H35.9809C38.9328 41.3247 41.3246 38.9318 41.3246 35.981V21.0185C41.3246 18.0677 38.9328 15.6748 35.9809 15.6748ZM24.2247 35.981H21.0184V24.2248H24.2247V35.981ZM22.6215 22.8696C21.5891 22.8696 20.7512 22.0253 20.7512 20.9843C20.7512 19.9434 21.5891 19.0991 22.6215 19.0991C23.6539 19.0991 24.4918 19.9434 24.4918 20.9843C24.4918 22.0253 23.655 22.8696 22.6215 22.8696ZM37.0496 35.981H33.8434V29.9917C33.8434 26.3922 29.5684 26.6647 29.5684 29.9917V35.981H26.3622V24.2248H29.5684V26.1111C31.0604 23.3473 37.0496 23.1432 37.0496 28.7573V35.981Z" fill="#3B3B3B"></path> </g> <defs> <clipPath id="clip0_144_507"> <rect width="25.6499" height="25.6499" fill="white" transform="translate(15.6747 15.6748)"></rect> </clipPath> </defs> </svg> 